<svg xmlns="http://www.w3.org/2000/svg" viewBox="0 0 100 100">
  <defs>
    <linearGradient id="grad" x1="0%" y1="0%" x2="100%" y2="100%">
      <stop offset="0%" style="stop-color:#0ea5e9"/>
      <stop offset="100%" style="stop-color:#22c55e"/>
    </linearGradient>
  </defs>
  <circle cx="50" cy="50" r="45" fill="url(#grad)"/>
  <path d="M50 20c-16.6 0-30 13.4-30 30 0 13.3 8.6 24.5 20.5 28.5 1.5.3 2-.7 2-1.5v-5.3c-8.3 1.8-10-4-10-4-1.4-3.5-3.3-4.4-3.3-4.4-2.7-1.8.2-1.8.2-1.8 3 .2 4.5 3 4.5 3 2.6 4.5 6.9 3.2 8.6 2.4.3-1.9 1-3.2 1.9-3.9-6.7-.8-13.7-3.3-13.7-14.8 0-3.3 1.2-6 3-8-.3-.8-1.3-3.8.3-8 0 0 2.5-.8 8 3 2.3-.6 4.8-1 7.2-1s4.9.3 7.2 1c5.5-3.8 8-3 8-3 1.6 4.2.6 7.2.3 8 1.9 2 3 4.7 3 8 0 11.5-7 14-13.7 14.8 1.1.9 2 2.8 2 5.6v8.3c0 .8.5 1.8 2 1.5C71.4 74.5 80 63.3 80 50c0-16.6-13.4-30-30-30z" fill="white"/>
</svg>
