<svg width="512" height="512" viewBox="0 0 512 512" fill="none" xmlns="http://www.w3.org/2000/svg">
  <rect width="512" height="512" rx="128" fill="#0D1117"/>
  
  <!-- Gift Box Body -->
  <rect x="106" y="200" width="300" height="240" rx="20" fill="#161B22" stroke="#30363d" stroke-width="10"/>
  
  <!-- Commit Graph Pattern on Box (Left Side) -->
  <rect x="136" y="240" width="30" height="30" rx="4" fill="#0e4429"/>
  <rect x="176" y="240" width="30" height="30" rx="4" fill="#006d32"/>
  <rect x="136" y="280" width="30" height="30" rx="4" fill="#26a641"/>
  <rect x="176" y="280" width="30" height="30" rx="4" fill="#0e4429"/>
  <rect x="136" y="320" width="30" height="30" rx="4" fill="#39d353"/>
  <rect x="176" y="320" width="30" height="30" rx="4" fill="#26a641"/>
  
  <!-- Commit Graph Pattern on Box (Right Side) -->
  <rect x="306" y="240" width="30" height="30" rx="4" fill="#26a641"/>
  <rect x="346" y="240" width="30" height="30" rx="4" fill="#39d353"/>
  <rect x="306" y="280" width="30" height="30" rx="4" fill="#006d32"/>
  <rect x="346" y="280" width="30" height="30" rx="4" fill="#0e4429"/>
  <rect x="306" y="320" width="30" height="30" rx="4" fill="#26a641"/>
  <rect x="346" y="320" width="30" height="30" rx="4" fill="#39d353"/>

  <!-- Ribbon Vertical -->
  <rect x="236" y="200" width="40" height="240" fill="#238636"/>
  
  <!-- Lid -->
  <rect x="86" y="140" width="340" height="60" rx="10" fill="#21262d" stroke="#30363d" stroke-width="10"/>
  
  <!-- Ribbon on Lid -->
  <rect x="236" y="140" width="40" height="60" fill="#238636"/>
  
  <!-- Bow -->
  <path d="M256 140 C 256 140, 150 40, 150 100 C 150 160, 256 140, 256 140" fill="#2ea043" stroke="#238636" stroke-width="5"/>
  <path d="M256 140 C 256 140, 362 40, 362 100 C 362 160, 256 140, 256 140" fill="#2ea043" stroke="#238636" stroke-width="5"/>
  
  <!-- Knot -->
  <circle cx="256" cy="140" r="15" fill="#3fb950"/>
</svg>
